<svg width="7" height="14" viewBox="0 0 7 14" fill="none" xmlns="http://www.w3.org/2000/svg">
<path d="M5.66009 6.91005L0.450562 1.04087C0.399655 0.983895 0.359429 0.916002 0.332266 0.841215C0.305102 0.766429 0.291555 0.686271 0.292425 0.605487C0.293295 0.524703 0.308566 0.444937 0.337332 0.370913C0.366099 0.296889 0.407776 0.230114 0.459895 0.174541C0.5665 0.0606842 0.708365 -0.00191596 0.855343 4.47853e-05C1.00232 0.00200553 1.14283 0.0683717 1.247 0.185041L6.84152 6.48826C6.89214 6.54482 6.93222 6.61216 6.95943 6.68635C6.98663 6.76054 7.00043 6.84009 6.99999 6.92035C6.99956 7.0006 6.98491 7.07995 6.9569 7.15376C6.92889 7.22757 6.88808 7.29436 6.83686 7.35022L0.948337 13.8215C0.842921 13.936 0.702103 14 0.555562 14C0.40902 14 0.268202 13.936 0.162786 13.8215C0.111278 13.7652 0.0703307 13.6978 0.0423691 13.6234C0.0144075 13.549 -2.32073e-08 13.4691 -2.67384e-08 13.3883C-3.02695e-08 13.3075 0.0144074 13.2276 0.042369 13.1531C0.0703306 13.0787 0.111278 13.0114 0.162786 12.9551L5.66009 6.91005Z" fill="#00D9D0"/>
</svg>
