<svg width="528" height="534" viewBox="0 0 528 534" fill="none" xmlns="http://www.w3.org/2000/svg">

<g clip-path="url(#clip0_17_30530)">
<path d="M451.675 211.763L434.789 243.511L400.697 244.883L417.579 213.139L451.675 211.763Z" fill="url(#paint0_linear_17_30530)"/>
<path d="M417.579 213.139L400.697 244.883L382.452 215.838L399.338 184.09L417.579 213.139Z" fill="url(#paint1_linear_17_30530)"/>
<path d="M399.338 184.09L433.43 182.718L451.675 211.763L417.579 213.139L399.338 184.09Z" fill="url(#paint2_linear_17_30530)"/>
<g style="mix-blend-mode:overlay">
<path d="M458.274 211.378L438.168 249.176L397.574 250.812L417.68 213.013L458.274 211.378Z" fill="url(#paint3_linear_17_30530)"/>
<path d="M417.68 213.013L397.574 250.812L375.853 216.223L395.959 178.425L417.68 213.013Z" fill="url(#paint4_linear_17_30530)"/>
<path d="M395.959 178.425L436.554 176.789L458.274 211.378L417.68 213.013L395.959 178.425Z" fill="url(#paint5_linear_17_30530)"/>
</g>
<path d="M333.413 209.146L424.41 333.458L366.212 467.64L275.219 343.331L333.413 209.146Z" fill="url(#paint6_linear_17_30530)"/>
<path d="M275.219 343.332L366.211 467.64L220.21 483.974L129.213 359.666L275.219 343.332Z" fill="url(#paint7_linear_17_30530)"/>
<path d="M129.213 359.666L187.411 225.48L333.413 209.146L275.219 343.331L129.213 359.666Z" fill="url(#paint8_linear_17_30530)"/>
<g style="mix-blend-mode:overlay">
<path d="M344.211 182.942L452.555 330.958L383.259 490.731L274.915 342.715L344.211 182.942Z" fill="#00D9D0"/>
<path d="M274.915 342.715L383.26 490.731L209.416 510.178L101.068 362.162L274.915 342.715Z" fill="#00D9D0"/>
<path d="M101.068 362.162L170.363 202.389L344.211 182.942L274.915 342.715L101.068 362.162Z" fill="#00D9D0"/>
</g>
<path d="M275.24 157.005L233.019 246.786L138.668 254.931L180.885 165.15L275.24 157.005Z" fill="url(#paint9_linear_17_30530)"/>
<path d="M180.885 165.15L138.668 254.931L83.8573 177.09L126.074 87.3131L180.885 165.15Z" fill="url(#paint10_linear_17_30530)"/>
<path d="M126.074 87.3131L220.429 79.1642L275.24 157.005L180.885 165.15L126.074 87.3131Z" fill="url(#paint11_linear_17_30530)"/>
<g style="mix-blend-mode:overlay">
<path d="M293.484 155.094L243.216 261.992L130.868 271.687L181.141 164.789L293.484 155.094Z" fill="url(#paint12_linear_17_30530)"/>
<path d="M181.141 164.789L130.868 271.687L65.6086 179.005L115.877 72.1069L181.141 164.789Z" fill="url(#paint13_linear_17_30530)"/>
<path d="M115.877 72.1069L228.225 62.4077L293.484 155.094L181.141 164.789L115.877 72.1069Z" fill="url(#paint14_linear_17_30530)"/>
</g>
<path d="M495.165 395.537L517.255 450.611L482.741 495.122L460.647 440.048L495.165 395.537Z" fill="url(#paint15_linear_17_30530)"/>
<path d="M460.647 440.048L482.741 495.122L426.701 487.273L404.607 432.199L460.647 440.048Z" fill="url(#paint16_linear_17_30530)"/>
<path d="M404.607 432.199L439.125 387.688L495.165 395.537L460.647 440.048L404.607 432.199Z" fill="url(#paint17_linear_17_30530)"/>
<g style="mix-blend-mode:overlay">
<path d="M501.692 386.791L528 452.368L486.899 505.365L460.591 439.788L501.692 386.791Z" fill="url(#paint18_linear_17_30530)"/>
<path d="M460.59 439.788L486.899 505.365L420.175 496.023L393.866 430.442L460.59 439.788Z" fill="url(#paint19_linear_17_30530)"/>
<path d="M393.866 430.442L434.968 377.445L501.692 386.791L460.59 439.788L393.866 430.442Z" fill="url(#paint20_linear_17_30530)"/>
</g>
<path d="M91.5883 372.953L98.1553 415.3L66.6226 440.981L60.0557 398.633L91.5883 372.953Z" fill="url(#paint21_linear_17_30530)"/>
<path d="M60.0557 398.633L66.6227 440.981L28.4825 426.314L21.9155 383.971L60.0557 398.633Z" fill="url(#paint22_linear_17_30530)"/>
<path d="M21.9155 383.971L53.4482 358.29L91.5884 372.953L60.0557 398.633L21.9155 383.971Z" fill="url(#paint23_linear_17_30530)"/>
<g style="mix-blend-mode:overlay">
<path d="M97.6078 367.864L105.424 418.287L67.8761 448.862L60.0598 398.442L97.6078 367.864Z" fill="url(#paint24_linear_17_30530)"/>
<path d="M60.0598 398.442L67.876 448.862L22.4631 431.404L14.6469 380.984L60.0598 398.442Z" fill="url(#paint25_linear_17_30530)"/>
<path d="M14.6469 380.984L52.1948 350.405L97.6077 367.864L60.0598 398.442L14.6469 380.984Z" fill="url(#paint26_linear_17_30530)"/>
</g>
<path d="M134.203 452.673L131.124 474.291L111.946 482.132L115.021 460.513L134.203 452.673Z" fill="url(#paint27_linear_17_30530)"/>
<path d="M115.021 460.513L111.946 482.132L95.5228 469.324L98.6015 447.706L115.021 460.513Z" fill="url(#paint28_linear_17_30530)"/>
<path d="M98.6016 447.705L117.779 439.865L134.203 452.673L115.021 460.513L98.6016 447.705Z" fill="url(#paint29_linear_17_30530)"/>
<g style="mix-blend-mode:overlay">
<path d="M137.89 451.086L134.227 476.827L111.387 486.161L115.049 460.42L137.89 451.086Z" fill="#00D9D0"/>
<path d="M115.049 460.42L111.387 486.161L91.8358 470.911L95.4985 445.169L115.049 460.42Z" fill="#00D9D0"/>
<path d="M95.4985 445.169L118.339 435.835L137.89 451.086L115.049 460.42L95.4985 445.169Z" fill="#00D9D0"/>
</g>
<path d="M254.699 6.20099L263.241 26.2974L250.878 42.9322L242.336 22.8357L254.699 6.20099Z" fill="url(#paint30_linear_17_30530)"/>
<path d="M242.336 22.8357L250.878 42.9322L230.204 40.4688L221.662 20.3724L242.336 22.8357Z" fill="url(#paint31_linear_17_30530)"/>
<path d="M221.662 20.3724L234.025 3.73767L254.699 6.20103L242.336 22.8358L221.662 20.3724Z" fill="url(#paint32_linear_17_30530)"/>
<g style="mix-blend-mode:overlay">
<path d="M257.031 2.93408L267.204 26.8615L252.484 46.6698L242.312 22.7424L257.031 2.93408Z" fill="url(#paint33_linear_17_30530)"/>
<path d="M242.312 22.7424L252.484 46.6698L227.868 43.7357L217.699 19.8083L242.312 22.7424Z" fill="url(#paint34_linear_17_30530)"/>
<path d="M217.699 19.8083L232.419 0L257.031 2.93411L242.312 22.7424L217.699 19.8083Z" fill="url(#paint35_linear_17_30530)"/>
</g>
<path d="M361.798 498.405L347.995 526.561L318.324 528.745L332.123 500.588L361.798 498.405Z" fill="url(#paint36_linear_17_30530)"/>
<path d="M332.123 500.588L318.324 528.745L301.584 503.953L315.388 475.801L332.123 500.588Z" fill="url(#paint37_linear_17_30530)"/>
<path d="M315.388 475.801L345.059 473.617L361.798 498.405L332.123 500.588L315.388 475.801Z" fill="url(#paint38_linear_17_30530)"/>
<g style="mix-blend-mode:overlay">
<path d="M367.538 497.878L351.106 531.403L315.773 534L332.205 500.475L367.538 497.878Z" fill="url(#paint39_linear_17_30530)"/>
<path d="M332.205 500.475L315.773 534L295.845 504.484L312.277 470.959L332.205 500.475Z" fill="url(#paint40_linear_17_30530)"/>
<path d="M312.277 470.959L347.61 468.362L367.538 497.878L332.205 500.475L312.277 470.959Z" fill="url(#paint41_linear_17_30530)"/>
</g>
<path style="mix-blend-mode:screen" opacity="0.64" d="M102.464 440.623C125.902 417.174 125.901 379.155 102.464 355.706C79.0267 332.256 41.0273 332.256 17.5899 355.706C-5.84742 379.155 -5.84744 417.174 17.5899 440.623C41.0273 464.073 79.0268 464.073 102.464 440.623Z" fill="url(#paint42_radial_17_30530)"/>
<path style="mix-blend-mode:screen" d="M447.306 244.506C463.891 227.913 463.891 201.009 447.306 184.416C430.721 167.823 403.832 167.823 387.247 184.416C370.662 201.009 370.662 227.913 387.247 244.506C403.832 261.099 430.721 261.099 447.306 244.506Z" fill="url(#paint43_radial_17_30530)"/>
</g>
<defs>
<linearGradient id="paint0_linear_17_30530" x1="376.797" y1="247.756" x2="474.591" y2="209.325" gradientUnits="userSpaceOnUse">
<stop offset="0.31" stop-color="#00C5BC"/>
<stop offset="0.42" stop-color="#009DBA"/>
<stop offset="0.57" stop-color="#006BB8"/>
<stop offset="0.71" stop-color="#0047B6"/>
<stop offset="0.81" stop-color="#0031B5"/>
<stop offset="0.88" stop-color="#0029B5"/>
</linearGradient>
<linearGradient id="paint1_linear_17_30530" x1="371.432" y1="189.881" x2="432.92" y2="242.785" gradientUnits="userSpaceOnUse">
<stop offset="0.21" stop-color="#00C5BC"/>
<stop offset="0.34" stop-color="#009CBA"/>
<stop offset="0.52" stop-color="#006BB8"/>
<stop offset="0.68" stop-color="#0047B6"/>
<stop offset="0.81" stop-color="#0031B5"/>
<stop offset="0.89" stop-color="#0029B5"/>
</linearGradient>
<linearGradient id="paint2_linear_17_30530" x1="495.175" y1="207.854" x2="364.843" y2="189.322" gradientUnits="userSpaceOnUse">
<stop offset="0.2" stop-color="#0029B5"/>
<stop offset="0.26" stop-color="#0032B5"/>
<stop offset="0.37" stop-color="#004CB7"/>
<stop offset="0.51" stop-color="#0075B8"/>
<stop offset="0.67" stop-color="#00AEBB"/>
<stop offset="0.73" stop-color="#00C5BC"/>
</linearGradient>
<linearGradient id="paint3_linear_17_30530" x1="427.924" y1="211.378" x2="427.924" y2="250.812" gradientUnits="userSpaceOnUse">
<stop stop-color="#0081FF"/>
<stop offset="1" stop-color="#00D9D0"/>
</linearGradient>
<linearGradient id="paint4_linear_17_30530" x1="396.767" y1="178.425" x2="396.767" y2="250.812" gradientUnits="userSpaceOnUse">
<stop stop-color="#0081FF"/>
<stop offset="1" stop-color="#00D9D0"/>
</linearGradient>
<linearGradient id="paint5_linear_17_30530" x1="427.117" y1="176.789" x2="427.117" y2="213.013" gradientUnits="userSpaceOnUse">
<stop stop-color="#0081FF"/>
<stop offset="1" stop-color="#00D9D0"/>
</linearGradient>
<linearGradient id="paint6_linear_17_30530" x1="332.812" y1="565.197" x2="366.562" y2="116.044" gradientUnits="userSpaceOnUse">
<stop offset="0.31" stop-color="#00B4AC"/>
<stop offset="0.4" stop-color="#0095A6"/>
<stop offset="0.56" stop-color="#00639D"/>
<stop offset="0.7" stop-color="#003F96"/>
<stop offset="0.81" stop-color="#002992"/>
<stop offset="0.88" stop-color="#002190"/>
</linearGradient>
<linearGradient id="paint7_linear_17_30530" x1="99.5802" y1="478.148" x2="418.274" y2="339.536" gradientUnits="userSpaceOnUse">
<stop offset="0.21" stop-color="#00B4AC"/>
<stop offset="0.32" stop-color="#0094A6"/>
<stop offset="0.51" stop-color="#00639D"/>
<stop offset="0.67" stop-color="#003F96"/>
<stop offset="0.81" stop-color="#002992"/>
<stop offset="0.89" stop-color="#002190"/>
</linearGradient>
<linearGradient id="paint8_linear_17_30530" x1="399.339" y1="33.8389" x2="84.8701" y2="502.344" gradientUnits="userSpaceOnUse">
<stop offset="0.2" stop-color="#0081FF"/>
<stop offset="0.26" stop-color="#0081FF"/>
<stop offset="0.38" stop-color="#0081FF"/>
<stop offset="0.52" stop-color="#006D9E"/>
<stop offset="0.69" stop-color="#00A6A9"/>
<stop offset="0.73" stop-color="#00B4AC"/>
</linearGradient>
<linearGradient id="paint9_linear_17_30530" x1="78.3546" y1="268.336" x2="342.396" y2="146.606" gradientUnits="userSpaceOnUse">
<stop offset="0.31" stop-color="#00D5CB"/>
<stop offset="0.45" stop-color="#009FC6"/>
<stop offset="0.59" stop-color="#006DC2"/>
<stop offset="0.72" stop-color="#0049BF"/>
<stop offset="0.82" stop-color="#0033BD"/>
<stop offset="0.88" stop-color="#002BBC"/>
</linearGradient>
<linearGradient id="paint10_linear_17_30530" x1="54.1148" y1="108.851" x2="233.296" y2="247.851" gradientUnits="userSpaceOnUse">
<stop offset="0.21" stop-color="#00D5CB"/>
<stop offset="0.37" stop-color="#009EC6"/>
<stop offset="0.54" stop-color="#006DC2"/>
<stop offset="0.69" stop-color="#0049BF"/>
<stop offset="0.81" stop-color="#0033BD"/>
<stop offset="0.89" stop-color="#002BBC"/>
</linearGradient>
<linearGradient id="paint11_linear_17_30530" x1="400.85" y1="143.219" x2="35.3518" y2="112.521" gradientUnits="userSpaceOnUse">
<stop offset="0.2" stop-color="#002BBC"/>
<stop offset="0.26" stop-color="#0034BD"/>
<stop offset="0.36" stop-color="#004EBF"/>
<stop offset="0.49" stop-color="#0077C3"/>
<stop offset="0.64" stop-color="#00B0C8"/>
<stop offset="0.73" stop-color="#00D5CB"/>
</linearGradient>
<linearGradient id="paint12_linear_17_30530" x1="212.176" y1="155.094" x2="212.176" y2="271.687" gradientUnits="userSpaceOnUse">
<stop stop-color="#0081FF"/>
<stop offset="1" stop-color="#00D9D0"/>
</linearGradient>
<linearGradient id="paint13_linear_17_30530" x1="123.375" y1="72.1069" x2="123.375" y2="271.687" gradientUnits="userSpaceOnUse">
<stop stop-color="#0081FF"/>
<stop offset="1" stop-color="#00D9D0"/>
</linearGradient>
<linearGradient id="paint14_linear_17_30530" x1="204.681" y1="62.4077" x2="204.681" y2="164.789" gradientUnits="userSpaceOnUse">
<stop stop-color="#0081FF"/>
<stop offset="1" stop-color="#00D9D0"/>
</linearGradient>
<linearGradient id="paint15_linear_17_30530" x1="465.442" y1="526.248" x2="520.621" y2="360.941" gradientUnits="userSpaceOnUse">
<stop offset="0.31" stop-color="#00EEE4"/>
<stop offset="0.32" stop-color="#00E7E4"/>
<stop offset="0.47" stop-color="#00A8E2"/>
<stop offset="0.61" stop-color="#0075E1"/>
<stop offset="0.73" stop-color="#0051E0"/>
<stop offset="0.82" stop-color="#003BDF"/>
<stop offset="0.88" stop-color="#0033DF"/>
</linearGradient>
<linearGradient id="paint16_linear_17_30530" x1="386.172" y1="471.506" x2="518.84" y2="449.647" gradientUnits="userSpaceOnUse">
<stop offset="0.21" stop-color="#00EEE4"/>
<stop offset="0.23" stop-color="#00E6E4"/>
<stop offset="0.41" stop-color="#00A7E2"/>
<stop offset="0.57" stop-color="#0075E1"/>
<stop offset="0.71" stop-color="#0051E0"/>
<stop offset="0.82" stop-color="#003BDF"/>
<stop offset="0.89" stop-color="#0033DF"/>
</linearGradient>
<linearGradient id="paint17_linear_17_30530" x1="540.658" y1="333.192" x2="378.36" y2="479.186" gradientUnits="userSpaceOnUse">
<stop offset="0.2" stop-color="#0033DF"/>
<stop offset="0.25" stop-color="#003CDF"/>
<stop offset="0.35" stop-color="#0056E0"/>
<stop offset="0.47" stop-color="#007FE1"/>
<stop offset="0.61" stop-color="#00B8E3"/>
<stop offset="0.73" stop-color="#00EEE4"/>
</linearGradient>
<linearGradient id="paint18_linear_17_30530" x1="494.295" y1="386.791" x2="494.295" y2="505.365" gradientUnits="userSpaceOnUse">
<stop stop-color="#0081FF"/>
<stop offset="1" stop-color="#00D9D0"/>
</linearGradient>
<linearGradient id="paint19_linear_17_30530" x1="440.383" y1="430.442" x2="440.383" y2="505.365" gradientUnits="userSpaceOnUse">
<stop stop-color="#0081FF"/>
<stop offset="1" stop-color="#00D9D0"/>
</linearGradient>
<linearGradient id="paint20_linear_17_30530" x1="447.779" y1="377.445" x2="447.779" y2="439.788" gradientUnits="userSpaceOnUse">
<stop stop-color="#0081FF"/>
<stop offset="1" stop-color="#00D9D0"/>
</linearGradient>
<linearGradient id="paint21_linear_17_30530" x1="45.8934" y1="460.815" x2="111.726" y2="354.257" gradientUnits="userSpaceOnUse">
<stop offset="0.31" stop-color="#00E8DE"/>
<stop offset="0.32" stop-color="#00E4DE"/>
<stop offset="0.47" stop-color="#00A5D9"/>
<stop offset="0.61" stop-color="#0072D6"/>
<stop offset="0.73" stop-color="#004ED3"/>
<stop offset="0.82" stop-color="#0038D2"/>
<stop offset="0.88" stop-color="#0030D1"/>
</linearGradient>
<linearGradient id="paint22_linear_17_30530" x1="-0.556881" y1="409.455" x2="95.8636" y2="415.996" gradientUnits="userSpaceOnUse">
<stop offset="0.21" stop-color="#00E8DE"/>
<stop offset="0.22" stop-color="#00E3DE"/>
<stop offset="0.4" stop-color="#00A4D9"/>
<stop offset="0.56" stop-color="#0072D6"/>
<stop offset="0.7" stop-color="#004ED3"/>
<stop offset="0.82" stop-color="#0038D2"/>
<stop offset="0.89" stop-color="#0030D1"/>
</linearGradient>
<linearGradient id="paint23_linear_17_30530" x1="130.296" y1="338.132" x2="-7.28019" y2="413.548" gradientUnits="userSpaceOnUse">
<stop offset="0.2" stop-color="#0030D1"/>
<stop offset="0.25" stop-color="#0039D2"/>
<stop offset="0.35" stop-color="#0053D3"/>
<stop offset="0.47" stop-color="#007CD6"/>
<stop offset="0.61" stop-color="#00B5DA"/>
<stop offset="0.73" stop-color="#00E8DE"/>
</linearGradient>
<linearGradient id="paint24_linear_17_30530" x1="82.7419" y1="367.864" x2="82.7419" y2="448.862" gradientUnits="userSpaceOnUse">
<stop stop-color="#0081FF"/>
<stop offset="1" stop-color="#00D9D0"/>
</linearGradient>
<linearGradient id="paint25_linear_17_30530" x1="41.2614" y1="380.984" x2="41.2614" y2="448.862" gradientUnits="userSpaceOnUse">
<stop stop-color="#0081FF"/>
<stop offset="1" stop-color="#00D9D0"/>
</linearGradient>
<linearGradient id="paint26_linear_17_30530" x1="56.1273" y1="350.405" x2="56.1273" y2="398.442" gradientUnits="userSpaceOnUse">
<stop stop-color="#0081FF"/>
<stop offset="1" stop-color="#00D9D0"/>
</linearGradient>
<linearGradient id="paint27_linear_17_30530" x1="97.4636" y1="489.09" x2="145.428" y2="447.008" gradientUnits="userSpaceOnUse">
<stop offset="0.31" stop-color="#00B4AC"/>
<stop offset="0.4" stop-color="#0095A6"/>
<stop offset="0.56" stop-color="#00639D"/>
<stop offset="0.7" stop-color="#003F96"/>
<stop offset="0.81" stop-color="#002992"/>
<stop offset="0.88" stop-color="#002190"/>
</linearGradient>
<linearGradient id="paint28_linear_17_30530" x1="82.4959" y1="457.135" x2="128.496" y2="474.699" gradientUnits="userSpaceOnUse">
<stop offset="0.21" stop-color="#00B4AC"/>
<stop offset="0.32" stop-color="#0094A6"/>
<stop offset="0.51" stop-color="#00639D"/>
<stop offset="0.67" stop-color="#003F96"/>
<stop offset="0.81" stop-color="#002992"/>
<stop offset="0.89" stop-color="#002190"/>
</linearGradient>
<linearGradient id="paint29_linear_17_30530" x1="156.873" y1="441.922" x2="78.6125" y2="458.143" gradientUnits="userSpaceOnUse">
<stop offset="0.2" stop-color="#0081FF"/>
<stop offset="0.26" stop-color="#0081FF"/>
<stop offset="0.38" stop-color="#0081FF"/>
<stop offset="0.52" stop-color="#006D9E"/>
<stop offset="0.69" stop-color="#00A6A9"/>
<stop offset="0.73" stop-color="#00B4AC"/>
</linearGradient>
<linearGradient id="paint30_linear_17_30530" x1="242.736" y1="57.3554" x2="262.137" y2="-3.4012" gradientUnits="userSpaceOnUse">
<stop offset="0.31" stop-color="#00D9D0"/>
<stop offset="0.45" stop-color="#00A0C9"/>
<stop offset="0.6" stop-color="#006DC3"/>
<stop offset="0.72" stop-color="#0049BF"/>
<stop offset="0.82" stop-color="#0033BC"/>
<stop offset="0.88" stop-color="#002BBB"/>
</linearGradient>
<linearGradient id="paint31_linear_17_30530" x1="213.465" y1="37.7055" x2="261.912" y2="29.0676" gradientUnits="userSpaceOnUse">
<stop offset="0.21" stop-color="#00D9D0"/>
<stop offset="0.38" stop-color="#009FC9"/>
<stop offset="0.55" stop-color="#006DC3"/>
<stop offset="0.7" stop-color="#0049BF"/>
<stop offset="0.82" stop-color="#0033BC"/>
<stop offset="0.89" stop-color="#002BBB"/>
</linearGradient>
<linearGradient id="paint32_linear_17_30530" x1="269.339" y1="-13.6526" x2="210.641" y2="40.5528" gradientUnits="userSpaceOnUse">
<stop offset="0.2" stop-color="#002BBB"/>
<stop offset="0.26" stop-color="#0034BC"/>
<stop offset="0.36" stop-color="#004EBF"/>
<stop offset="0.48" stop-color="#0077C4"/>
<stop offset="0.63" stop-color="#00B0CB"/>
<stop offset="0.73" stop-color="#00D9D0"/>
</linearGradient>
<linearGradient id="paint33_linear_17_30530" x1="254.758" y1="2.93408" x2="254.758" y2="46.6698" gradientUnits="userSpaceOnUse">
<stop stop-color="#0081FF"/>
<stop offset="1" stop-color="#00D9D0"/>
</linearGradient>
<linearGradient id="paint34_linear_17_30530" x1="235.092" y1="19.8083" x2="235.092" y2="46.6698" gradientUnits="userSpaceOnUse">
<stop stop-color="#0081FF"/>
<stop offset="1" stop-color="#00D9D0"/>
</linearGradient>
<linearGradient id="paint35_linear_17_30530" x1="237.365" y1="0" x2="237.365" y2="22.7424" gradientUnits="userSpaceOnUse">
<stop stop-color="#0081FF"/>
<stop offset="1" stop-color="#00D9D0"/>
</linearGradient>
<linearGradient id="paint36_linear_17_30530" x1="296.151" y1="533.976" x2="380.476" y2="497.727" gradientUnits="userSpaceOnUse">
<stop offset="0.31" stop-color="#00D9D0"/>
<stop offset="0.45" stop-color="#00A0C9"/>
<stop offset="0.6" stop-color="#006DC3"/>
<stop offset="0.72" stop-color="#0049BF"/>
<stop offset="0.82" stop-color="#0033BC"/>
<stop offset="0.88" stop-color="#002BBB"/>
</linearGradient>
<linearGradient id="paint37_linear_17_30530" x1="289.87" y1="483.59" x2="345.014" y2="528.088" gradientUnits="userSpaceOnUse">
<stop offset="0.21" stop-color="#00D9D0"/>
<stop offset="0.38" stop-color="#009FC9"/>
<stop offset="0.55" stop-color="#006DC3"/>
<stop offset="0.7" stop-color="#0049BF"/>
<stop offset="0.82" stop-color="#0033BC"/>
<stop offset="0.89" stop-color="#002BBB"/>
</linearGradient>
<linearGradient id="paint38_linear_17_30530" x1="398.405" y1="495.874" x2="284.101" y2="483.28" gradientUnits="userSpaceOnUse">
<stop offset="0.2" stop-color="#002BBB"/>
<stop offset="0.26" stop-color="#0034BC"/>
<stop offset="0.36" stop-color="#004EBF"/>
<stop offset="0.48" stop-color="#0077C4"/>
<stop offset="0.63" stop-color="#00B0CB"/>
<stop offset="0.73" stop-color="#00D9D0"/>
</linearGradient>
<linearGradient id="paint39_linear_17_30530" x1="341.655" y1="497.878" x2="341.655" y2="534" gradientUnits="userSpaceOnUse">
<stop stop-color="#0081FF"/>
<stop offset="1" stop-color="#00D9D0"/>
</linearGradient>
<linearGradient id="paint40_linear_17_30530" x1="314.025" y1="470.959" x2="314.025" y2="534" gradientUnits="userSpaceOnUse">
<stop stop-color="#0081FF"/>
<stop offset="1" stop-color="#00D9D0"/>
</linearGradient>
<linearGradient id="paint41_linear_17_30530" x1="339.907" y1="468.362" x2="339.907" y2="500.475" gradientUnits="userSpaceOnUse">
<stop stop-color="#0081FF"/>
<stop offset="1" stop-color="#00D9D0"/>
</linearGradient>
<radialGradient id="paint42_radial_17_30530" cx="0" cy="0" r="1" gradientUnits="userSpaceOnUse" gradientTransform="translate(60.0046 399.201) rotate(-10.998) scale(60.0912 60.1197)">
<stop offset="0.06" stop-color="#00FFEF"/>
<stop offset="0.22" stop-color="#00C1B5"/>
<stop offset="0.46" stop-color="#006F68"/>
<stop offset="0.66" stop-color="#003330"/>
<stop offset="0.81" stop-color="#000E0D"/>
<stop offset="0.88"/>
</radialGradient>
<radialGradient id="paint43_radial_17_30530" cx="0" cy="0" r="1" gradientUnits="userSpaceOnUse" gradientTransform="translate(417.279 214.462) scale(42.4681 42.4898)">
<stop stop-color="#00FFEF"/>
<stop offset="0.28" stop-color="#00B3A8"/>
<stop offset="0.78" stop-color="#003330"/>
<stop offset="1"/>
</radialGradient>
<clipPath id="clip0_17_30530">
<rect width="528" height="534" fill="white"/>
</clipPath>
</defs>
</svg>
