<svg width="10" height="10" viewBox="0 0 10 10" fill="none" xmlns="http://www.w3.org/2000/svg">
<path d="M9.28571 4.64286C9.28571 5.87422 8.79656 7.05515 7.92585 7.92585C7.05515 8.79656 5.87422 9.28571 4.64286 9.28571C3.41149 9.28571 2.23057 8.79656 1.35986 7.92585C0.489157 7.05515 0 5.87422 0 4.64286M9.28571 4.64286C9.28571 3.41149 8.79656 2.23057 7.92585 1.35986C7.05515 0.489157 5.87422 0 4.64286 0C3.41149 0 2.23057 0.489157 1.35986 1.35986C0.489157 2.23057 0 3.41149 0 4.64286M9.28571 4.64286H0" stroke="white" stroke-width="0.5" stroke-linecap="round" stroke-linejoin="round"/>
<path d="M6.42861 4.64286C6.34089 6.34071 5.71552 7.96668 4.64289 9.28571C3.57026 7.96668 2.94489 6.34071 2.85718 4.64286C2.94489 2.94501 3.57026 1.31904 4.64289 0C5.71552 1.31904 6.34089 2.94501 6.42861 4.64286Z" stroke="white" stroke-width="0.5" stroke-linecap="round" stroke-linejoin="round"/>
</svg>
