<svg width="50" height="50" viewBox="0 0 50 50" fill="none" xmlns="http://www.w3.org/2000/svg">
<path d="M22.8667 42.2998C22.5241 36.8704 20.5281 31.7695 17.0943 27.5494C15.9098 26.0936 13.7696 25.7854 12.2226 26.8475C10.7768 27.8401 10.2469 29.7224 10.9622 31.3231L12.6797 35.1652C9.92911 33.3615 8.06438 30.4106 7.63787 27.129L6.13555 15.5717C5.93641 14.0419 4.62331 12.8883 3.08055 12.8883C1.38177 12.8883 0 14.27 0 15.9688V20.1153C0 20.6547 0.437191 21.0919 0.976622 21.0919C1.51605 21.0919 1.95324 20.6547 1.95324 20.1153V15.9688C1.95324 15.3474 2.4591 14.8415 3.08055 14.8415C3.64516 14.8415 4.12546 15.2638 4.19833 15.8235L5.70065 27.3808C6.24046 31.5318 8.74305 35.2308 12.3951 37.2756C13.0478 37.6414 13.8268 37.5514 14.3792 37.0467C14.9316 36.542 15.0915 35.774 14.7859 35.0911L12.7457 30.5262C12.4149 29.7865 12.6598 28.9163 13.3278 28.4577C14.0435 27.9671 15.032 28.1098 15.5794 28.7824C18.7546 32.6847 20.6006 37.4015 20.9173 42.4227L21.3377 49.0847C21.3705 49.602 21.8004 49.9999 22.3116 49.9999C22.3322 49.9999 22.3532 49.9991 22.3742 49.998C22.9125 49.9636 23.3214 49.4997 23.2875 48.9615L22.8667 42.2998Z" fill="white"/>
<path d="M0.976622 24.705C1.23337 24.705 1.48553 24.6016 1.66712 24.4196C1.84871 24.2373 1.95324 23.9863 1.95324 23.7291C1.95324 23.4716 1.84871 23.2195 1.66712 23.0379C1.48553 22.8563 1.23337 22.7518 0.976622 22.7518C0.719877 22.7518 0.46771 22.8563 0.28612 23.0379C0.104529 23.2195 0 23.4716 0 23.7291C0 23.9863 0.104529 24.2381 0.28612 24.4196C0.46771 24.6016 0.719877 24.705 0.976622 24.705Z" fill="white"/>
<path d="M5.55721 40.9585C3.23315 38.1446 1.95324 34.5845 1.95324 30.9344V27.1958C1.95324 26.6563 1.51605 26.2191 0.976622 26.2191C0.437191 26.2191 0 26.6563 0 27.1958V30.9344C0 35.0374 1.43861 39.0392 4.05145 42.2026L10.1981 49.6451C10.3911 49.879 10.6704 49.9999 10.9515 49.9999C11.1705 49.9999 11.391 49.9266 11.573 49.7763C11.9888 49.4326 12.0475 48.8173 11.7042 48.4014L5.55721 40.9585Z" fill="white"/>
<path d="M46.9224 12.8883C45.3797 12.8883 44.0666 14.0419 43.8674 15.5717L42.3651 27.129C41.9386 30.4106 40.0742 33.3615 37.3237 35.1652L39.0408 31.3231C39.7561 29.7224 39.2262 27.8401 37.7803 26.8475C36.2334 25.7854 34.0932 26.0936 32.9087 27.5494C29.4748 31.7695 27.4789 36.8704 27.1363 42.2998L26.7159 48.9618C26.6815 49.5001 27.0905 49.964 27.6288 49.998C27.6498 49.9991 27.6708 49.9999 27.6914 49.9999C28.2026 49.9999 28.6325 49.6024 28.6653 49.0847L29.0857 42.4231C29.4027 37.4018 31.2484 32.6851 34.4239 28.7824C34.971 28.1094 35.9598 27.9671 36.6751 28.4577C37.3431 28.9167 37.5884 29.7865 37.2577 30.5262L35.2171 35.0911C34.9119 35.7744 35.0713 36.542 35.6237 37.0467C36.1761 37.5514 36.9551 37.6414 37.6083 37.276C41.2603 35.2308 43.7625 31.5318 44.3023 27.3812L45.8046 15.8235C45.8775 15.2638 46.3582 14.8415 46.9224 14.8415C47.5442 14.8415 48.0497 15.3474 48.0497 15.9688V30.9348C48.0497 34.5845 46.7698 38.1446 44.4458 40.9589L38.2991 48.4014C37.9554 48.8173 38.0142 49.433 38.43 49.7763C38.8462 50.1201 39.4616 50.0609 39.8049 49.6451L45.9515 42.2026C48.5644 39.0392 50.003 35.0374 50.003 30.9344V15.9688C50.003 14.27 48.6212 12.8883 46.9224 12.8883Z" fill="white"/>
<path d="M36.721 14.1086C36.4643 14.1086 36.2121 14.2132 36.0305 14.3948C35.8489 14.5764 35.7444 14.8285 35.7444 15.086C35.7444 15.3432 35.8489 15.5942 36.0305 15.7765C36.2121 15.9585 36.4643 16.0619 36.721 16.0619C36.9778 16.0619 37.2299 15.9585 37.4115 15.7765C37.5931 15.5942 37.6976 15.3432 37.6976 15.086C37.6976 14.8285 37.5931 14.5775 37.4115 14.3948C37.2299 14.2132 36.9778 14.1086 36.721 14.1086Z" fill="white"/>
<path d="M37.6973 21.275V18.5038C37.6973 17.9644 37.2602 17.5272 36.7207 17.5272C36.1813 17.5272 35.7441 17.9644 35.7441 18.5038V20.7115L25.9779 26.35V15.0727L35.7441 9.43422V11.521C35.7441 12.0604 36.1813 12.4976 36.7207 12.4976C37.2602 12.4976 37.6973 12.0604 37.6973 11.521V7.74268C37.6973 7.39362 37.5112 7.07126 37.209 6.89691L25.4896 0.130757C25.1874 -0.0435856 24.8151 -0.0435856 24.5129 0.130757L12.7935 6.89691C12.4913 7.07126 12.3052 7.39362 12.3052 7.74268V21.275C12.3052 21.6241 12.4913 21.9464 12.7935 22.1208L24.5129 28.8873C24.664 28.9743 24.8326 29.0182 25.0013 29.0182C25.1699 29.0182 25.3385 28.9743 25.4896 28.8873L37.209 22.1208C37.5112 21.9464 37.6973 21.6241 37.6973 21.275ZM25.0013 2.10422L34.7675 7.74268L25.0013 13.3811L15.235 7.74268L25.0013 2.10422ZM14.2584 9.43422L24.0246 15.0727V26.35L14.2584 20.7115V9.43422Z" fill="white"/>
</svg>
