<svg width="50" height="50" viewBox="0 0 50 50" fill="none" xmlns="http://www.w3.org/2000/svg">
<g clip-path="url(#clip0_4_7)">
<path opacity="0.971" fill-rule="evenodd" clip-rule="evenodd" d="M24.5499 0.849977C25.1973 0.811833 25.7973 0.961833 26.3499 1.29998C33.7999 8.74998 41.25 16.2 48.6999 23.65C49.2999 24.5833 49.2999 25.5167 48.6999 26.45C41.25 33.9 33.7999 41.35 26.3499 48.8C25.3403 49.3173 24.3736 49.2506 23.4499 48.6C16.0999 41.25 8.74995 33.9 1.39995 26.55C0.712425 25.5682 0.679092 24.5682 1.29995 23.55C8.71662 16.1333 16.1332 8.71665 23.5499 1.29998C23.8814 1.117 24.2148 0.966997 24.5499 0.849977ZM24.6499 1.94998C25.0965 1.9156 25.4965 2.03227 25.8499 2.29998C30.0832 6.53331 34.3167 10.7667 38.5499 15C36.4158 15.0833 34.2825 15.0666 32.1499 14.95C31.0752 13.0336 29.9752 11.1336 28.8499 9.24998C26.2832 9.11665 23.7166 9.11665 21.1499 9.24998C19.9166 11.3833 18.6832 13.5167 17.4499 15.65C18.6832 17.7833 19.9166 19.9167 21.1499 22.05C23.7166 22.1833 26.2832 22.1833 28.8499 22.05C29.9959 20.1082 31.1292 18.1582 32.2499 16.2C34.75 16.1333 37.25 16.1333 39.75 16.2C42.3999 18.85 45.0499 21.5 47.6999 24.15C48.1666 24.75 48.1666 25.35 47.6999 25.95C40.4166 33.2333 33.1332 40.5167 25.8499 47.8C25.3685 48.0893 24.8685 48.1226 24.3499 47.9C20.0166 43.5667 15.6832 39.2333 11.3499 34.9C13.484 34.8167 15.6173 34.8334 17.7499 34.95C18.8832 36.8833 20.0166 38.8167 21.1499 40.75C23.7159 40.8666 26.2826 40.8833 28.8499 40.8C30.1092 38.6814 31.3425 36.5481 32.5499 34.4C31.3425 32.2519 30.1092 30.1186 28.8499 28C26.2832 27.9333 23.7166 27.9333 21.1499 28C20.0418 29.9498 18.9085 31.8831 17.7499 33.8C15.2499 33.8667 12.7499 33.8667 10.2499 33.8C7.53328 31.0833 4.81662 28.3667 2.09995 25.65C1.85995 25.0764 1.92662 24.5431 2.29995 24.05C9.54995 16.8 16.7999 9.54998 24.0499 2.29998C24.2431 2.15413 24.4431 2.03746 24.6499 1.94998ZM21.8499 10.25C23.9502 10.2333 26.0502 10.25 28.1499 10.3C29.1848 12.0677 30.2182 13.8343 31.2499 15.6C30.2425 17.4147 29.2092 19.2147 28.1499 21C26.0499 21.0667 23.9499 21.0667 21.8499 21C20.8039 19.2248 19.7706 17.4415 18.7499 15.65C19.7844 13.8473 20.8177 12.0473 21.8499 10.25ZM21.8499 28.95C23.9502 28.9333 26.0502 28.95 28.1499 29C29.2092 30.7853 30.2425 32.5853 31.2499 34.4C30.2425 36.2147 29.2092 38.0147 28.1499 39.8C26.0491 39.8833 23.9491 39.8666 21.8499 39.75C20.778 37.9896 19.7447 36.2063 18.7499 34.4C19.7723 32.5713 20.8056 30.7547 21.8499 28.95Z" fill="#0F77EA"/>
<path opacity="0.994" fill-rule="evenodd" clip-rule="evenodd" d="M10.65 18.45C13.1836 18.4333 15.7169 18.45 18.25 18.5C19.3833 20.4333 20.5167 22.3667 21.65 24.3C23.85 24.3667 26.0499 24.3667 28.25 24.3C29.3878 22.4413 30.4877 20.558 31.5499 18.65C34.1159 18.5334 36.6826 18.5167 39.25 18.6C40.454 20.6583 41.6707 22.7083 42.8999 24.75C42.9666 24.9167 42.9666 25.0833 42.8999 25.25C41.6707 27.2917 40.454 29.3417 39.25 31.4C36.6826 31.4833 34.1159 31.4666 31.5499 31.35C30.4366 29.387 29.3032 27.437 28.15 25.5C26.0166 25.4333 23.8832 25.4333 21.75 25.5C20.5833 27.4667 19.4167 29.4333 18.25 31.4C15.7167 31.4667 13.1833 31.4667 10.65 31.4C9.37708 29.2707 8.14375 27.1207 6.94995 24.95C8.15755 22.7681 9.39088 20.6014 10.65 18.45Z" fill="#0F77EA"/>
</g>
<defs>
<clipPath id="clip0_4_7">
<rect width="50" height="50" fill="white"/>
</clipPath>
</defs>
</svg>
