<svg width="10" height="10" viewBox="0 0 10 10" fill="none" xmlns="http://www.w3.org/2000/svg">
<path d="M6.13274 0.634834C6.1431 0.59596 6.16103 0.559509 6.18549 0.527567C6.20995 0.495625 6.24046 0.468818 6.27529 0.448679C6.31012 0.428539 6.34858 0.415463 6.38846 0.410197C6.42835 0.404931 6.46888 0.407579 6.50774 0.417989C7.24713 0.610864 7.92174 0.997379 8.46206 1.53772C9.00238 2.07805 9.38889 2.75268 9.58176 3.49209C9.59217 3.53095 9.59482 3.57148 9.58955 3.61137C9.58428 3.65126 9.57121 3.68971 9.55107 3.72454C9.53093 3.75937 9.50413 3.78989 9.47218 3.81435C9.44024 3.83881 9.40379 3.85674 9.36492 3.8671C9.33912 3.87397 9.31253 3.8774 9.28584 3.87731C9.21839 3.87735 9.15282 3.85511 9.09931 3.81406C9.04579 3.773 9.00734 3.71542 8.98991 3.65026C8.82433 3.01513 8.49238 2.43564 8.02827 1.97152C7.56417 1.5074 6.98469 1.17544 6.34958 1.00985C6.3107 0.999484 6.27425 0.981559 6.24231 0.957098C6.21037 0.932636 6.18356 0.902118 6.16342 0.867289C6.14329 0.83246 6.13021 0.794003 6.12494 0.754116C6.11968 0.71423 6.12233 0.673697 6.13274 0.634834ZM5.94141 2.64257C6.68376 2.84053 7.15928 3.31606 7.35724 4.05844C7.37467 4.1236 7.41312 4.18118 7.46663 4.22224C7.52014 4.26329 7.58572 4.28553 7.65316 4.28549C7.67986 4.28558 7.70645 4.28215 7.73225 4.27528C7.77112 4.26492 7.80757 4.24699 7.83951 4.22253C7.87145 4.19807 7.89826 4.16755 7.9184 4.13272C7.93854 4.09789 7.95161 4.05944 7.95688 4.01955C7.96214 3.97966 7.9595 3.93913 7.94909 3.90027C7.69398 2.94564 7.05418 2.30582 6.09957 2.05071C6.06071 2.04032 6.02018 2.03769 5.98031 2.04297C5.94043 2.04824 5.90198 2.06132 5.86716 2.08146C5.79683 2.12213 5.74554 2.18907 5.72457 2.26755C5.70359 2.34604 5.71466 2.42964 5.75532 2.49997C5.79599 2.5703 5.86292 2.62159 5.94141 2.64257ZM9.99452 7.59174C9.90711 8.25872 9.5798 8.87104 9.07378 9.31425C8.56776 9.75747 7.91766 10.0012 7.245 10C3.25005 10 5.08792e-06 6.74987 5.08792e-06 2.75481C-0.00128358 2.08236 0.242263 1.43243 0.685152 0.926437C1.12804 0.420439 1.73998 0.0929765 2.40667 0.00521778C2.56014 -0.0134332 2.71552 0.0182126 2.84947 0.0954024C2.98342 0.172592 3.08871 0.291159 3.14953 0.433296L4.22608 2.83645C4.27361 2.94524 4.29328 3.06417 4.2833 3.18248C4.27333 3.30078 4.23402 3.41473 4.16894 3.51403C4.16237 3.52414 4.15522 3.53385 4.14751 3.54311L3.07249 4.82173C3.06597 4.83499 3.06257 4.84956 3.06257 4.86434C3.06257 4.87911 3.06597 4.89369 3.07249 4.90694C3.46331 5.70697 4.3021 6.53966 5.11334 6.92998C5.12688 6.93615 5.14168 6.93909 5.15655 6.93856C5.17143 6.93803 5.18598 6.93404 5.19905 6.92692L6.45876 5.85545C6.46775 5.84762 6.4773 5.84046 6.48733 5.83402C6.58618 5.76811 6.69991 5.7279 6.81822 5.71703C6.93653 5.70616 7.05569 5.72498 7.16489 5.77177L9.57513 6.85191C9.71537 6.91407 9.83187 7.01972 9.90741 7.15324C9.98294 7.28676 10.0135 7.44104 9.99452 7.59327V7.59174ZM9.38788 7.51623C9.38959 7.49489 9.38455 7.47356 9.37347 7.45525C9.36239 7.43693 9.34584 7.42257 9.32614 7.41418L6.9154 6.33404C6.90223 6.32895 6.88811 6.32678 6.87402 6.32766C6.85993 6.32854 6.8462 6.33246 6.83377 6.33914L5.57457 7.41061C5.56538 7.41826 5.55569 7.42541 5.54599 7.43204C5.44328 7.50053 5.32457 7.54124 5.20144 7.55018C5.07831 7.55912 4.95496 7.536 4.84343 7.48306C3.90669 7.03049 2.973 6.10546 2.52045 5.17736C2.46722 5.06647 2.44352 4.94372 2.45166 4.82099C2.45979 4.69826 2.49948 4.57971 2.56687 4.47682C2.57344 4.46659 2.58078 4.45687 2.58881 4.44774L3.66332 3.16912C3.66946 3.15575 3.67264 3.14122 3.67264 3.12651C3.67264 3.11181 3.66946 3.09727 3.66332 3.08391L2.58881 0.678714C2.58172 0.65941 2.56896 0.642699 2.55221 0.630772C2.53546 0.618845 2.5155 0.612258 2.49493 0.611874H2.4832C1.96429 0.680903 1.48824 0.936449 1.14395 1.33079C0.799654 1.72514 0.610661 2.23132 0.612258 2.75481C0.612258 6.4121 3.58781 9.38773 7.245 9.38773C7.76855 9.38931 8.27478 9.20024 8.66913 8.85583C9.06348 8.51143 9.31897 8.03524 9.38788 7.51623Z" fill="white"/>
</svg>
