<svg width="50" height="50" viewBox="0 0 50 50" fill="none" xmlns="http://www.w3.org/2000/svg">
<path d="M49.9902 22.9785C48.3203 9.67773 39.3066 1.08398 25.7324 0L24.2774 0.0195312C21.9531 0.410156 19.0528 1.12305 17.2363 3.18359C16.1035 4.46289 15.1563 6.70898 15.0196 8.39843C14.5117 14.7559 19.1016 17.1582 22.793 19.0918C22.793 19.0918 27.6758 21.6406 30.0977 22.8906L34.3457 25.0976C36.3281 26.123 37.8809 27.0703 39.0527 28.3398C41.582 31.084 42.6367 34.3262 42.3926 38.5449C42.3535 39.1894 42.7148 39.7851 43.3008 40.0586C43.5156 40.1562 43.7402 40.2051 43.9551 40.2051C44.3457 40.2051 44.7461 40.0488 45.0391 39.7656C45.7129 39.1113 46.3574 38.2226 46.9629 37.1094C48.5742 34.1797 49.5801 30.8398 49.8828 27.4219C49.9609 27.2461 50 27.041 50 26.8359L49.9902 22.9785ZM46.875 26.5234C46.8359 26.6504 46.8066 26.7773 46.7969 26.9043C46.582 29.6094 45.9082 31.875 45.1856 33.623C44.5996 30.8203 43.3301 28.3887 41.3477 26.2402C39.7754 24.5508 37.7539 23.3691 35.791 22.3437L31.5332 20.1269C29.1211 18.8769 26.7188 17.6269 24.3555 16.3867L24.2383 16.3281C20.2246 14.2285 17.8125 12.666 18.1348 8.65234C18.2031 7.73437 18.8379 6.09375 19.5801 5.2539C20.7617 3.90625 23.125 3.38867 24.541 3.125H25.6055C37.4609 4.07226 45.4199 11.6406 46.875 23.1738V26.5234Z" fill="white"/>
<path d="M37.3144 35.2051C36.4062 31.914 33.5058 29.9805 30.498 28.3789C28.4082 27.2656 26.3672 26.2207 24.3262 25.1758C22.4023 24.1894 20.4785 23.1933 18.4961 22.1484L18.2226 22.0019C16.3769 21.0254 14.6289 20.0976 13.3887 18.8574C11.7969 17.2656 10.459 14.6289 10.0684 12.2949C9.9121 11.3281 9.9121 9.49219 9.9121 8.88672C9.9121 8.28125 9.55078 7.72461 9.0039 7.4707C8.44726 7.20703 7.79296 7.30469 7.33398 7.69531C5.15625 9.53125 3.1543 12.5293 1.8457 15.918C0.732421 18.7793 0.126953 21.4258 0 24.082V26.0937C0.341797 32.2754 2.62695 37.5976 7.00195 42.3535C10.918 46.6113 16.4453 49.2578 23.164 50L26.5234 49.9804C29.3945 49.5312 31.9433 48.2031 33.916 46.123C35.0879 44.9023 38.7695 40.4785 37.3144 35.2051ZM31.6504 43.9746C30.1562 45.5468 28.2129 46.5527 26.2793 46.875L23.3398 46.8847C17.5586 46.2402 12.7051 43.9453 9.30664 40.2441C5.43945 36.0351 3.41797 31.3476 3.125 26.0058V24.1601C3.24219 21.8945 3.75976 19.6289 4.76562 17.0508C5.37109 15.4883 6.13281 14.0332 6.98242 12.7832C6.98242 12.793 6.98242 12.8027 6.98242 12.8125C7.48046 15.791 9.12109 19.0332 11.1719 21.0742C12.7441 22.6465 14.7851 23.7305 16.7578 24.7754L17.0312 24.9219C19.0234 25.9668 20.957 26.9726 22.9004 27.959C24.9316 28.9941 26.9531 30.039 29.0234 31.1426C31.416 32.4121 33.7109 33.8867 34.2969 36.0351C35.3125 39.7461 32.5293 43.0469 31.6504 43.9746Z" fill="white"/>
</svg>
